<?xml version="1.0" standalone="no"?>
<!DOCTYPE svg PUBLIC "-//W3C//DTD SVG 20010904//EN"
 "http://www.w3.org/TR/2001/REC-SVG-20010904/DTD/svg10.dtd">
<svg version="1.0" xmlns="http://www.w3.org/2000/svg"
 width="834.000000pt" height="834.000000pt" viewBox="0 0 834.000000 834.000000"
 preserveAspectRatio="xMidYMid meet">
<metadata>
Created by potrace 1.14, written by Peter Selinger 2001-2017
</metadata>
<g transform="translate(0.000000,834.000000) scale(0.100000,-0.100000)"
fill="#000000" stroke="none">
<path d="M6638 7873 c20 -8 14 -23 -9 -23 -12 0 -28 -8 -35 -17 -13 -17 -14
-17 -8 0 3 9 2 17 -4 17 -5 0 -10 -15 -10 -32 0 -53 -1 -58 -13 -58 -5 0 -8 4
-4 9 3 5 2 12 -3 15 -8 5 -9 0 -15 -91 -1 -29 -8 -58 -15 -65 -7 -7 -12 -23
-12 -37 0 -24 0 -24 -15 -5 -13 16 -14 16 -9 2 4 -11 1 -18 -7 -18 -7 0 -9 -3
-6 -7 4 -3 -3 -13 -14 -21 -17 -11 -23 -12 -29 -2 -5 9 -9 9 -14 1 -4 -6 -11
-9 -16 -6 -5 3 -11 1 -15 -4 -3 -6 4 -8 16 -6 15 3 19 1 13 -5 -6 -6 -22 -11
-37 -12 -15 -1 -26 -7 -23 -14 2 -6 -2 -11 -9 -11 -7 0 -11 6 -8 13 5 14 -22
13 -34 -1 -4 -4 -2 -5 6 0 9 5 12 3 9 -6 -3 -8 -15 -13 -27 -11 -15 2 -24 -3
-27 -16 -4 -12 -13 -18 -27 -17 -12 1 -26 -3 -30 -9 -6 -8 -10 -7 -14 2 -2 6
-9 12 -14 12 -6 0 -7 -5 -3 -12 4 -6 3 -8 -4 -5 -18 12 -39 -3 -37 -27 l3 -23
-257 -1 c-262 -1 -285 -2 -298 -17 -4 -4 -3 -5 4 -1 6 3 14 2 17 -3 3 -5 -14
-8 -39 -8 -30 2 -45 -2 -45 -10 0 -7 -6 -14 -12 -14 -7 -1 -17 -2 -23 -4 -5
-1 -15 -3 -22 -3 -7 -1 -10 -9 -7 -17 4 -10 0 -15 -15 -15 -12 0 -21 -6 -21
-15 0 -10 -10 -15 -31 -15 -24 0 -30 -4 -25 -15 4 -12 -3 -15 -29 -15 -24 0
-35 -5 -35 -15 0 -8 -7 -15 -15 -15 -8 0 -15 -6 -15 -14 0 -7 -9 -16 -20 -19
-11 -3 -19 -9 -18 -14 2 -4 -1 -9 -7 -10 -5 -1 -12 -10 -16 -20 -3 -10 -12
-18 -20 -18 -8 -1 -13 -7 -11 -14 1 -7 -7 -15 -18 -18 -11 -3 -20 -12 -20 -19
0 -8 -7 -14 -15 -14 -8 0 -15 -7 -15 -16 0 -10 -6 -14 -15 -10 -10 4 -15 -1
-15 -14 0 -11 -7 -20 -15 -20 -8 0 -15 -7 -15 -15 0 -8 -7 -15 -15 -15 -8 0
-15 -9 -15 -20 0 -12 -5 -17 -14 -14 -17 7 -27 -40 -12 -58 8 -8 6 -8 -6 1
-10 7 -16 17 -13 20 2 4 -3 8 -11 8 -8 0 -11 -4 -6 -9 12 -12 3 -60 -10 -52
-8 5 -22 -24 -19 -40 0 -3 -10 -17 -23 -31 l-23 -25 -329 1 c-181 0 -333 0
-339 -1 -5 -1 -19 -2 -30 -1 -11 0 -14 -2 -7 -5 27 -12 8 -20 -60 -23 -40 -2
-86 -4 -102 -4 l-30 1 25 -14 c20 -11 21 -13 4 -11 -11 1 -26 7 -34 11 -10 6
-12 5 -7 -2 7 -11 -50 -18 -93 -13 -7 2 -10 -3 -6 -9 4 -6 14 -9 23 -5 9 3 13
2 8 -2 -8 -9 -11 -9 -101 -12 -40 -2 -53 -5 -41 -10 19 -7 19 -8 -2 -13 -14
-4 -22 -1 -25 11 -4 13 -5 13 -6 1 0 -8 -10 -21 -22 -28 -12 -8 -19 -9 -16 -4
4 5 -4 8 -16 7 -12 -1 -22 -8 -22 -16 0 -9 -11 -14 -33 -13 -20 0 -32 -4 -32
-13 0 -13 -10 -15 -63 -16 -19 0 -26 -5 -23 -13 3 -8 1 -16 -4 -19 -6 -4 -10
-1 -10 5 0 6 -5 8 -12 3 -7 -4 -24 -8 -38 -9 -14 -1 -33 -2 -42 -3 -10 0 -18
-7 -18 -15 0 -9 -7 -13 -20 -11 -11 2 -20 -2 -20 -8 0 -7 -4 -6 -10 3 -9 13
-10 13 -11 0 -1 -8 -1 -19 0 -23 1 -5 -3 -6 -8 -3 -5 4 -12 2 -15 -3 -3 -5
-16 -7 -29 -5 -12 2 -16 2 -9 -2 17 -8 15 -25 -3 -18 -8 4 -15 2 -15 -3 0 -5
-9 -9 -19 -9 -11 0 -17 5 -14 10 3 5 1 6 -5 2 -7 -4 -12 -14 -12 -22 0 -8 -5
-14 -11 -14 -6 0 -8 8 -5 18 6 16 5 16 -8 0 -7 -10 -25 -18 -40 -18 -15 0 -25
-4 -21 -9 7 -12 -7 -21 -38 -23 -16 -1 -23 -7 -20 -15 3 -8 -3 -13 -15 -13
-12 0 -24 -4 -27 -10 -3 -5 -1 -10 6 -10 7 0 9 -3 5 -7 -4 -4 -22 -6 -41 -5
-27 2 -33 -1 -29 -13 4 -10 0 -15 -15 -15 -19 0 -26 -10 -22 -33 1 -5 -3 -6
-8 -2 -6 3 -8 13 -5 23 3 9 -2 5 -11 -11 -9 -15 -13 -33 -9 -39 5 -7 3 -8 -5
-4 -7 5 -10 14 -7 22 3 8 3 14 0 14 -2 0 -9 -12 -15 -27 -7 -16 -13 -23 -16
-15 -3 6 -9 10 -13 7 -5 -3 -6 -13 -3 -23 6 -14 4 -15 -9 -4 -18 15 -34 0 -22
-20 4 -7 -3 -4 -16 7 l-23 20 11 -21 c9 -16 8 -21 -3 -21 -8 0 -12 4 -9 8 2 4
-9 1 -26 -7 -16 -9 -30 -18 -30 -20 0 -3 5 -2 12 2 7 4 8 3 4 -4 -4 -7 -16
-12 -27 -12 -10 0 -19 -5 -19 -11 0 -5 6 -7 13 -3 8 5 9 4 2 -4 -6 -6 -24 -12
-42 -14 -20 -1 -29 -6 -26 -15 3 -8 -3 -13 -16 -13 -12 0 -21 -5 -21 -11 0 -5
6 -7 13 -4 6 4 3 0 -7 -9 -10 -8 -23 -13 -27 -10 -5 3 -9 -2 -9 -10 0 -15 -12
-21 -34 -17 -5 1 -6 -5 -2 -14 3 -10 2 -13 -5 -10 -5 4 -16 1 -24 -5 -8 -7
-15 -9 -16 -4 0 5 -4 -1 -10 -14 -5 -13 -13 -21 -18 -17 -5 3 -12 -4 -16 -15
-4 -11 -10 -18 -15 -15 -4 3 -10 -5 -13 -16 -3 -12 -10 -18 -17 -14 -7 4 -14
-2 -17 -14 -5 -19 -12 -22 -52 -19 -33 2 -45 7 -43 17 2 8 -3 11 -12 8 -9 -4
-18 -2 -21 4 -4 5 -11 7 -16 3 -6 -3 -13 3 -16 14 -3 13 -11 18 -23 15 -12 -3
-19 1 -22 13 -2 14 -15 17 -66 19 -53 1 -65 -2 -74 -18 -8 -16 -12 -17 -19 -6
-6 9 -9 -6 -10 -43 -2 -73 -2 -75 -13 -85 -5 -5 -6 -3 -2 5 4 6 2 12 -3 12 -8
0 -11 -80 -11 -246 0 -218 -2 -245 -16 -240 -8 3 -12 2 -9 -4 3 -6 1 -10 -5
-10 -6 0 -8 -5 -5 -10 9 -14 -4 -52 -16 -45 -8 6 -14 -25 -10 -49 1 -5 -5 -6
-14 -3 -8 4 -15 3 -16 -1 0 -4 -2 -25 -3 -47 -2 -25 -7 -39 -14 -38 -13 3 -13
4 -17 -47 -2 -19 -3 -41 -4 -47 -1 -7 -6 -13 -12 -13 -5 0 -7 5 -3 12 4 6 3 8
-3 5 -5 -3 -9 -27 -8 -52 0 -25 -3 -45 -7 -45 -4 0 -8 5 -8 12 0 6 -3 8 -7 5
-3 -4 -8 -33 -10 -64 -2 -31 -9 -61 -16 -65 -8 -5 -8 -8 -1 -8 7 0 11 -11 10
-24 0 -13 -6 -22 -12 -19 -15 5 -16 -209 -1 -219 5 -3 11 -17 13 -30 1 -12 3
-23 4 -23 1 0 3 -13 5 -30 4 -43 4 -45 13 -42 4 1 7 -3 7 -8 0 -6 -4 -9 -8 -7
-5 1 -6 -2 -2 -8 3 -5 12 -10 20 -10 8 0 11 -7 8 -20 -4 -15 0 -20 13 -20 16
0 17 -2 4 -10 -12 -8 -11 -10 8 -10 12 0 22 -4 22 -10 0 -5 -8 -7 -17 -4 -14
5 -15 4 -4 -4 8 -6 10 -15 5 -23 -6 -10 -3 -10 11 1 17 14 18 13 13 -7 -4 -13
-2 -23 4 -23 6 0 7 -7 4 -16 -3 -8 -2 -12 3 -9 5 3 12 1 15 -4 4 -5 -2 -12
-11 -14 -17 -4 -17 -5 0 -6 9 0 17 -8 17 -16 0 -8 5 -15 10 -15 6 0 10 -7 10
-15 0 -8 4 -15 10 -15 5 0 7 -6 4 -14 -3 -8 0 -17 7 -22 8 -4 10 -3 5 4 -4 7
-2 12 3 12 6 0 11 -13 11 -29 0 -18 8 -35 20 -44 11 -8 17 -17 13 -20 -3 -4 1
-7 10 -7 8 0 18 -9 22 -20 3 -11 9 -19 13 -19 23 4 42 -2 37 -11 -4 -6 -11 -7
-17 -4 -7 4 -8 2 -4 -5 4 -6 12 -9 17 -6 5 4 9 2 9 -4 0 -6 6 -8 14 -5 8 3 17
0 22 -7 5 -8 3 -10 -7 -4 -11 6 -11 5 -2 -5 6 -7 25 -13 41 -13 17 -1 28 -5
25 -10 -2 -4 -8 -5 -13 -2 -5 3 -11 1 -14 -4 -3 -5 10 -12 29 -15 19 -4 35
-11 35 -17 0 -6 -5 -7 -12 -3 -6 4 -8 3 -5 -4 4 -5 16 -8 27 -5 15 4 20 0 20
-16 0 -13 5 -19 14 -15 7 3 16 -2 19 -10 4 -9 14 -16 22 -16 9 0 14 -4 10 -9
-3 -5 0 -13 6 -17 7 -4 9 -3 5 4 -3 6 -2 13 3 16 5 4 12 -3 16 -14 4 -11 11
-18 16 -15 5 4 9 0 9 -7 0 -10 3 -9 11 2 9 12 10 11 6 -6 -4 -17 0 -20 24 -19
27 2 34 -6 30 -29 -1 -5 6 -3 15 5 12 9 15 9 10 2 -5 -9 -1 -13 12 -13 11 0
23 -7 26 -15 3 -9 11 -15 18 -14 27 3 38 -2 38 -16 0 -9 6 -15 13 -14 36 4 59
-2 54 -15 -4 -10 2 -13 24 -12 17 1 32 -1 35 -6 3 -5 9 -6 14 -3 5 3 12 0 16
-6 4 -7 3 -9 -2 -6 -6 3 -16 2 -22 -2 -8 -4 5 -8 28 -9 46 -2 63 -9 55 -22 -3
-5 -1 -11 5 -15 5 -3 10 -2 10 4 0 7 8 7 26 1 14 -6 29 -8 33 -6 4 3 13 0 21
-6 12 -8 12 -9 -2 -4 -10 3 -19 2 -22 -3 -4 -7 27 -11 111 -15 18 -1 36 -6 40
-10 5 -5 2 -6 -7 -1 -13 8 -13 7 -1 -9 8 -10 17 -13 20 -7 4 6 12 6 20 1 8 -4
21 -5 30 -2 14 5 14 3 2 -11 -12 -15 -11 -17 13 -18 14 -1 31 -3 36 -4 6 -1
17 -3 25 -4 23 -2 16 -61 -7 -61 -11 0 -15 -5 -12 -15 4 -9 0 -15 -10 -15 -9
0 -16 -6 -16 -14 0 -7 -9 -16 -21 -19 -12 -3 -18 -10 -14 -16 3 -6 0 -11 -7
-11 -8 0 -25 -13 -38 -30 -14 -16 -30 -29 -36 -30 -7 0 -14 -9 -17 -21 -3 -12
-10 -18 -16 -14 -6 3 -11 0 -11 -8 0 -8 -7 -17 -15 -21 -8 -3 -15 -13 -15 -21
0 -9 -5 -13 -10 -10 -10 6 -31 -34 -24 -46 2 -4 -4 -9 -15 -12 -13 -3 -17 -13
-16 -35 1 -21 -2 -29 -12 -25 -9 4 -13 -4 -13 -22 0 -23 -2 -26 -15 -15 -10 9
-15 9 -16 1 -1 -6 -3 -15 -4 -21 -1 -5 -3 -19 -4 -31 0 -11 -5 -17 -11 -14
-10 6 -11 4 -14 -37 -1 -14 -7 -22 -16 -20 -10 3 -8 -3 5 -20 15 -17 16 -19 3
-9 -10 7 -18 12 -19 10 -1 -5 -6 -73 -8 -111 0 -16 -5 -28 -11 -28 -5 0 -7 8
-4 18 3 9 -1 6 -9 -8 -9 -14 -13 -28 -11 -32 3 -5 -22 -8 -55 -8 -44 0 -60 4
-59 13 2 9 -30 12 -134 12 -75 1 -135 -2 -132 -6 2 -4 16 -6 29 -3 14 2 25 1
25 -4 0 -4 -18 -8 -40 -8 -25 0 -39 4 -37 10 3 6 -8 11 -24 11 -15 1 -25 -3
-23 -7 3 -5 9 -6 14 -3 5 3 11 2 14 -3 2 -4 -8 -8 -23 -7 -19 0 -27 4 -23 13
3 10 -7 12 -41 10 -25 -2 -43 -7 -40 -11 3 -5 12 -6 20 -3 8 3 11 1 8 -4 -4
-6 -12 -10 -18 -9 -7 1 -40 1 -74 0 -49 -1 -63 -4 -63 -16 0 -15 -28 -20 -92
-16 -16 0 -28 -3 -28 -9 0 -5 -16 -12 -35 -16 -22 -4 -32 -10 -28 -18 4 -6 0
-5 -9 2 -14 11 -19 9 -32 -10 -9 -13 -19 -22 -21 -20 -15 7 -36 0 -32 -11 3
-9 -5 -12 -29 -12 -30 1 -38 -4 -36 -26 1 -3 -5 -6 -13 -6 -8 0 -12 4 -10 8 3
4 -6 2 -20 -4 -14 -7 -25 -19 -26 -27 0 -10 -3 -8 -9 5 -7 17 -9 17 -9 3 -1
-12 -9 -18 -26 -18 -14 0 -25 -5 -25 -11 0 -5 5 -7 12 -3 7 4 8 3 4 -5 -6 -9
-11 -9 -24 1 -12 10 -14 10 -8 1 4 -8 2 -13 -8 -13 -8 0 -18 -5 -22 -12 -5 -8
-2 -9 9 -5 9 3 18 3 21 -1 2 -4 -7 -9 -22 -10 -14 -1 -30 -9 -35 -17 -4 -8
-21 -15 -37 -15 -17 0 -29 -3 -29 -7 4 -22 -3 -32 -16 -27 -9 4 -15 0 -15 -10
0 -9 -7 -16 -15 -16 -8 0 -15 -7 -15 -15 0 -8 -7 -15 -15 -15 -8 0 -15 -6 -15
-13 0 -7 -9 -18 -20 -25 -12 -7 -18 -17 -15 -22 3 -5 -1 -7 -9 -4 -9 3 -17 -2
-21 -15 -3 -12 -13 -21 -21 -21 -8 0 -14 -7 -14 -15 0 -8 -7 -15 -15 -15 -8 0
-15 -7 -15 -15 0 -8 -6 -15 -14 -15 -7 0 -16 -9 -19 -21 -4 -14 -10 -18 -18
-13 -9 5 -10 2 -6 -9 3 -10 2 -17 -3 -17 -5 0 -7 -7 -4 -15 4 -9 0 -15 -10
-15 -9 0 -16 -7 -16 -15 0 -18 -16 -20 -23 -2 -3 6 -6 -5 -6 -25 -1 -27 -5
-36 -15 -32 -8 3 -15 -3 -18 -14 -3 -11 0 -19 8 -19 7 0 10 5 7 11 -3 6 -2 7
2 3 10 -9 14 -27 17 -84 2 -23 6 -39 10 -36 5 2 6 8 3 13 -3 5 -2 11 3 14 8 5
15 -54 15 -114 0 -24 0 -24 13 5 12 29 12 29 10 -22 -1 -29 1 -53 4 -53 3 0 5
-20 5 -45 -1 -24 2 -42 6 -40 3 3 5 18 4 35 -1 17 0 32 4 34 4 3 7 -10 8 -27
3 -82 9 -117 21 -117 12 0 16 -12 13 -38 -1 -8 7 -16 18 -19 16 -4 20 -12 17
-34 -2 -19 1 -28 8 -26 6 3 10 10 8 16 -1 7 2 10 7 7 5 -3 8 -17 6 -31 -1 -14
3 -25 9 -25 6 0 16 -11 23 -25 6 -14 7 -23 2 -19 -5 3 -9 1 -9 -4 0 -5 9 -12
20 -15 13 -3 20 -14 20 -30 0 -14 5 -29 12 -33 6 -4 8 -3 4 4 -3 6 -1 14 6 18
7 4 10 4 6 -1 -4 -4 -3 -15 4 -22 9 -11 9 -17 -3 -25 -11 -7 -9 -9 9 -5 18 4
22 1 22 -18 0 -12 7 -28 15 -35 8 -7 15 -19 15 -26 0 -8 8 -14 18 -14 9 0 24
-5 32 -11 13 -9 12 -10 -2 -5 -10 3 -18 1 -18 -4 0 -6 14 -10 31 -10 18 0 28
-4 24 -10 -4 -6 -12 -7 -18 -4 -7 4 -7 2 1 -7 7 -8 18 -14 25 -14 7 -1 11 -6
9 -13 -1 -7 5 -12 13 -12 8 0 15 -4 15 -10 0 -5 5 -10 11 -10 5 0 7 5 3 12 -4
7 -3 8 4 4 6 -4 8 -14 5 -23 -5 -13 -2 -15 16 -10 16 4 21 1 19 -11 -2 -9 3
-17 10 -18 6 -1 17 -2 23 -3 8 -1 7 -6 -2 -17 -11 -13 -10 -15 3 -12 10 1 23
-6 31 -16 11 -15 16 -16 22 -6 5 9 4 11 -3 6 -7 -4 -12 -2 -12 4 0 7 6 10 13
7 6 -2 11 -11 9 -20 -2 -11 2 -15 13 -11 10 4 15 0 15 -10 0 -11 9 -16 30 -16
23 0 30 -5 30 -19 0 -16 5 -19 25 -15 20 3 27 -1 35 -21 5 -14 12 -25 15 -25
4 0 3 5 0 10 -3 6 1 10 10 10 11 0 15 -5 11 -15 -3 -9 0 -15 10 -15 8 0 13 4
9 9 -3 5 0 13 6 17 7 4 9 3 6 -3 -12 -18 17 -31 58 -27 27 2 35 0 25 -6 -8 -5
-18 -6 -22 -4 -4 3 -8 0 -8 -5 0 -6 14 -11 31 -11 18 0 38 -7 46 -17 7 -10 12
-13 11 -7 -2 7 2 12 7 12 6 1 9 -5 7 -12 -1 -8 11 -14 35 -15 21 -1 43 -3 50
-3 7 -1 11 -6 10 -12 -1 -6 6 -10 16 -10 9 1 17 -2 17 -7 0 -5 7 -6 15 -3 8 3
17 0 20 -9 4 -9 21 -14 48 -14 63 -1 67 -2 67 -16 0 -10 20 -14 77 -14 63 0
78 -3 83 -17 3 -10 9 -17 13 -17 4 1 30 1 57 1 38 0 50 -4 50 -15 0 -12 17
-15 94 -15 98 0 130 -6 120 -21 -4 -7 83 -14 144 -12 7 1 11 -4 9 -11 -3 -7 4
-13 16 -14 17 -1 19 1 7 8 -11 7 -11 10 -2 10 7 0 15 -7 18 -15 4 -8 11 -12
17 -8 5 3 28 5 49 5 28 -1 37 2 33 11 -4 6 -1 5 7 -4 7 -9 22 -15 34 -14 13 1
21 -4 20 -13 -1 -12 11 -15 62 -13 46 2 62 -1 62 -11 0 -10 3 -9 10 2 9 13 11
13 20 0 6 -10 10 -11 10 -2 0 6 5 12 11 12 6 0 8 -8 5 -18 -5 -14 -4 -14 9 2
15 19 16 19 19 -6 1 -9 24 -13 79 -12 58 0 77 -3 77 -13 0 -7 5 -13 11 -13 5
0 8 4 4 9 -3 5 0 13 6 17 7 4 9 3 5 -4 -12 -19 15 -25 118 -26 87 -2 101 -4
104 -19 4 -21 72 -25 72 -4 0 8 4 7 10 -3 9 -13 11 -13 20 0 6 10 10 11 10 3
0 -10 58 -13 253 -12 241 1 286 7 271 31 -4 6 1 6 13 -1 14 -7 24 -7 33 2 7 7
10 8 8 2 -3 -5 0 -16 8 -23 9 -8 14 -9 14 -2 0 6 5 8 12 4 7 -4 8 -3 4 5 -4 6
-13 8 -19 5 -7 -4 -9 -3 -4 1 9 11 57 13 57 3 0 -4 -4 -8 -10 -8 -5 0 -10 -5
-10 -12 0 -9 3 -9 11 -1 6 6 19 9 28 6 14 -4 14 -3 1 6 -9 6 -10 11 -3 11 6 0
18 3 27 6 10 4 16 1 16 -9 0 -9 4 -18 9 -21 5 -3 8 2 7 11 -1 14 10 17 62 19
35 1 69 7 75 13 14 14 27 14 27 0 0 -5 -5 -7 -12 -3 -7 5 -8 3 -3 -6 6 -10 11
-10 20 4 9 11 29 17 63 18 28 1 49 6 46 10 -2 3 9 3 25 -2 34 -9 42 -5 33 18
-5 15 -4 16 13 2 11 -9 16 -10 11 -2 -5 9 4 12 33 12 23 0 41 4 41 10 0 5 -8
7 -17 3 -10 -3 -14 -2 -10 2 4 5 25 10 45 10 50 2 84 14 76 27 -5 7 0 9 14 6
12 -4 24 -2 27 3 3 4 13 5 23 2 14 -6 15 -4 5 9 -11 13 -8 15 24 16 20 1 43 8
53 17 9 8 26 15 38 15 11 0 25 6 29 13 12 21 51 27 64 11 6 -8 8 -14 3 -15 -5
0 1 -4 14 -10 13 -5 21 -13 18 -18 -3 -5 0 -9 7 -8 43 1 59 -4 53 -18 -4 -12
8 -15 72 -16 42 -1 81 -1 87 1 5 1 22 2 37 2 29 1 38 13 16 21 -7 2 28 3 77 3
60 -1 89 -5 88 -12 -2 -10 11 -12 84 -17 18 -1 20 -4 10 -16 -10 -12 -9 -14 6
-8 9 3 17 3 17 -2 0 -4 18 -6 39 -5 30 1 38 -1 34 -12 -5 -15 3 -16 110 -16
36 0 57 -4 57 -11 0 -9 2 -9 8 -1 4 6 27 11 52 12 87 0 155 5 143 9 -30 11 -8
18 52 18 57 0 68 4 67 25 0 3 36 6 80 7 44 2 87 8 96 14 16 10 16 10 0 5 -10
-3 -20 -2 -22 3 -3 4 21 9 52 10 31 1 62 7 67 12 7 7 4 8 -7 4 -10 -4 -18 -3
-18 2 0 8 23 12 93 17 16 1 34 8 40 17 8 11 25 15 51 13 28 -1 35 1 25 8 -11
7 -11 11 -1 15 18 7 15 21 -7 28 -12 3 -18 12 -15 20 3 7 -3 16 -15 20 -12 3
-21 13 -21 21 0 8 -5 12 -11 9 -6 -4 -13 2 -16 14 -3 12 -12 21 -19 21 -8 0
-14 7 -14 15 0 8 -7 15 -15 15 -8 0 -16 7 -16 15 -3 29 -4 33 -13 42 -5 4 -6
3 -2 -4 3 -6 2 -14 -4 -18 -6 -4 -10 5 -10 19 0 14 -5 26 -11 26 -5 0 -7 -5
-4 -10 3 -6 1 -10 -4 -10 -6 0 -11 9 -11 21 0 13 -4 18 -12 13 -8 -5 -9 -2 -5
9 3 9 3 16 -1 16 -27 -4 -42 3 -42 22 0 16 -4 19 -21 14 -18 -6 -19 -5 -10 14
10 17 9 20 -5 14 -12 -5 -15 -3 -9 6 5 10 2 11 -14 6 -12 -3 -21 -3 -20 2 1 4
1 15 0 23 -1 13 -2 13 -11 0 -8 -13 -10 -12 -10 3 0 9 -6 17 -13 17 -7 0 -18
9 -25 20 -7 11 -23 20 -37 20 -19 0 -23 4 -19 18 5 14 3 14 -12 -3 -14 -17
-16 -17 -11 -2 4 9 2 17 -4 17 -6 0 -8 4 -4 9 3 5 0 13 -6 17 -7 4 -9 3 -5 -4
3 -6 2 -13 -4 -17 -5 -3 -10 1 -10 9 0 9 -7 16 -15 16 -8 0 -15 7 -15 16 0 10
-6 14 -15 10 -13 -5 -20 5 -16 27 0 4 -8 7 -20 7 -14 0 -19 5 -16 14 4 10 0
14 -14 11 -10 -2 -19 1 -19 6 0 6 -8 9 -17 8 -34 -3 -43 1 -44 19 0 11 -2 12
-6 4 -6 -15 -33 3 -33 22 0 8 -34 12 -117 11 -105 -1 -116 1 -121 18 -3 10
-10 16 -18 13 -8 -3 -14 1 -14 9 0 7 -4 17 -10 20 -6 4 -7 -1 -4 -12 5 -16 4
-16 -8 -2 -7 8 -21 18 -31 22 -10 4 -16 11 -13 16 3 5 -2 8 -11 7 -10 0 -18 4
-18 11 0 6 -4 15 -9 20 -5 4 -6 3 -2 -4 3 -6 2 -14 -3 -17 -5 -3 -11 4 -14 15
-4 13 -10 18 -18 14 -7 -5 -10 -3 -7 6 3 8 -6 19 -21 27 -14 7 -17 10 -6 7 14
-4 17 -3 9 4 -5 6 -28 12 -51 14 -24 1 -39 6 -36 13 2 7 -21 11 -64 12 -80 2
-100 5 -110 17 -4 4 -2 5 5 1 6 -4 12 -2 12 3 0 6 -6 11 -14 11 -9 0 -13 9
-11 25 1 14 -2 28 -8 32 -6 3 -7 1 -3 -5 3 -6 3 -13 -2 -16 -4 -2 -9 10 -10
27 -2 17 -8 35 -15 39 -7 4 -7 8 -2 8 6 0 2 5 -8 11 -9 6 -15 14 -12 19 9 15
-17 23 -27 9 -7 -10 -8 -8 -5 8 3 13 1 26 -4 29 -5 3 -9 -1 -9 -8 0 -10 -3 -9
-9 2 -6 8 -7 18 -4 23 3 4 -5 11 -16 14 -17 4 -19 8 -10 20 7 8 8 13 3 12 -23
-4 -45 2 -39 11 3 6 -5 14 -19 20 -18 7 -24 14 -19 26 5 13 3 15 -7 9 -8 -5
-18 -1 -27 10 -7 11 -13 15 -13 11 0 -5 -8 -2 -17 5 -11 9 -14 10 -9 2 5 -9 2
-11 -9 -7 -11 5 -13 10 -5 19 8 10 4 14 -15 19 -14 4 -23 11 -20 16 3 6 -3 10
-15 10 -13 0 -19 4 -14 11 5 8 1 8 -14 0 -17 -9 -19 -8 -15 9 4 16 0 20 -23
21 -16 1 -36 1 -44 0 -13 -2 -13 -1 0 8 13 10 8 15 -12 12 -4 0 -10 9 -13 20
-4 13 -12 18 -22 15 -11 -4 -13 -2 -10 9 4 8 2 17 -3 20 -4 3 -7 13 -5 23 2 9
4 30 4 46 1 22 4 26 14 18 10 -8 13 -6 14 9 1 12 -3 17 -10 13 -8 -5 -9 -4 -2
4 6 6 24 12 40 14 17 1 33 10 36 18 3 8 12 15 20 15 8 0 14 7 14 15 0 9 8 14
18 12 12 -2 15 2 11 13 -5 11 0 18 14 22 20 5 21 12 20 94 -1 79 -3 89 -19 89
-12 0 -16 5 -13 15 4 9 0 15 -9 15 -9 0 -19 9 -22 20 -4 11 -11 18 -16 15 -5
-4 -13 4 -18 17 -4 13 -12 21 -17 18 -5 -3 -10 27 -11 65 -2 97 -4 112 -10 98
-6 -17 -21 -17 -20 0 2 63 -5 107 -16 107 -9 0 -14 13 -15 35 -1 20 -6 43 -12
53 -11 16 -11 16 -6 0 3 -10 1 -18 -4 -18 -8 0 -16 56 -11 83 1 5 -3 6 -9 2
-6 -3 -7 -12 -4 -18 4 -7 3 -9 -1 -4 -9 7 -13 23 -18 62 -1 11 -9 23 -17 26
-11 5 -14 18 -12 51 l4 44 289 -1 c159 0 289 3 289 7 0 4 7 5 15 2 11 -4 13
-2 9 9 -4 12 -1 14 17 10 17 -5 20 -3 14 8 -7 12 -6 12 7 1 12 -9 18 -10 23
-2 4 6 13 9 21 6 8 -3 17 1 20 9 9 21 27 19 20 -2 -6 -17 -5 -17 8 0 7 10 27
17 45 17 18 0 31 5 31 13 0 7 3 8 8 2 4 -5 16 -12 26 -13 17 -3 18 -1 8 11
-10 12 -10 15 0 14 45 -1 78 4 73 13 -6 10 9 19 42 25 10 1 17 8 16 14 -3 10
10 15 30 12 4 0 7 7 7 18 0 14 6 18 28 15 26 -3 26 -2 7 13 -20 15 -20 15 3
10 17 -4 22 -1 22 14 0 11 7 19 16 19 9 0 12 5 8 13 -6 9 -4 9 8 -1 13 -10 18
-10 24 -1 4 8 3 9 -4 5 -7 -4 -12 -1 -12 8 0 9 3 15 8 15 20 -3 32 3 32 17 0
9 5 12 12 8 8 -5 9 -2 5 9 -4 10 -2 17 5 17 18 0 59 50 51 63 -4 7 2 5 12 -3
11 -9 16 -10 11 -2 -4 7 -2 12 4 12 7 0 10 7 7 15 -4 8 -2 17 4 20 5 4 6 11 3
17 -4 7 -2 8 5 4 6 -4 9 -12 6 -17 -4 -5 -1 -9 4 -9 6 0 11 16 11 35 0 19 5
35 11 35 5 0 7 -4 4 -10 -3 -6 1 -7 9 -4 12 5 13 10 5 26 -9 16 -8 19 2 13 9
-6 11 -3 6 11 -7 18 -7 18 8 0 14 -19 15 -18 16 15 1 19 1 37 1 40 -1 4 9 5
21 2 16 -3 18 -2 8 5 -9 7 -10 12 -2 16 6 4 9 19 7 34 -5 26 -5 26 11 7 15
-20 15 -20 10 3 -3 12 -1 22 5 22 5 0 7 4 4 9 -6 10 18 34 26 26 3 -3 4 6 2
21 -3 33 5 56 18 48 6 -4 3 5 -6 19 -16 23 -16 25 3 30 13 3 18 11 16 23 -2
11 -4 22 -4 26 -1 4 -9 5 -18 2 -14 -4 -14 -2 2 8 25 16 29 35 13 56 -7 9 -8
13 -2 9 7 -4 10 12 10 49 -1 38 4 59 14 67 13 10 13 10 1 -5 -9 -12 -10 -18
-2 -18 13 0 12 -1 18 65 2 28 5 58 6 67 1 13 4 14 15 6 10 -9 12 -6 8 15 -3
15 0 27 6 27 5 0 8 7 4 15 -3 8 -1 15 3 15 5 0 12 -6 14 -12 3 -7 6 -1 7 15 4
42 4 45 14 54 5 5 6 3 2 -4 -4 -7 -2 -13 3 -13 6 0 11 11 11 25 0 25 31 50 46
37 5 -4 3 0 -4 10 -11 14 -10 17 6 22 13 4 18 15 16 35 -1 22 2 28 12 24 9 -3
14 2 14 15 0 12 5 24 12 28 7 4 8 3 4 -4 -11 -18 0 -14 15 5 10 11 10 14 2 9
-7 -4 -13 -3 -13 3 0 5 4 12 9 15 4 3 8 28 7 55 -2 40 1 48 11 39 10 -8 13 -6
13 6 0 9 -6 16 -12 16 -10 0 -9 3 1 9 7 5 10 14 7 20 -4 6 -4 11 1 11 4 0 7
48 7 108 -2 136 -1 132 -20 132 -10 0 -14 6 -10 15 5 13 -18 15 -168 15 -165
0 -174 1 -179 20 -3 11 -1 18 4 14 15 -9 10 3 -8 22 -18 18 -22 31 -25 77 -1
18 -4 24 -9 16 -4 -7 -5 -18 -2 -24 4 -5 2 -6 -2 -2 -9 8 -13 23 -17 69 -1 15
-6 24 -10 22 -5 -3 -5 -10 -2 -16 4 -7 2 -8 -4 -4 -7 4 -12 25 -12 47 0 25 -4
38 -10 34 -13 -8 -29 35 -22 55 5 13 4 13 -13 0 -11 -9 -16 -10 -11 -2 4 6 3
12 -2 12 -5 0 -8 11 -7 25 4 28 -10 42 -21 24 -4 -7 -3 -9 3 -6 5 3 10 0 10
-8 0 -10 -4 -12 -12 -5 -6 5 -11 27 -10 48 1 25 -4 39 -12 39 -6 0 -9 -5 -6
-11 3 -6 2 -7 -2 -3 -5 4 -10 22 -11 39 -2 18 -11 38 -21 46 -10 7 -17 16 -15
20 1 4 -4 7 -10 7 -7 0 -14 9 -14 20 -1 11 -2 25 -3 32 -1 7 -8 10 -16 7 -10
-4 -15 0 -15 15 0 12 -6 21 -15 21 -8 0 -15 7 -15 15 0 8 -7 15 -15 15 -13 0
-21 26 -16 54 1 5 -5 3 -14 -4 -9 -7 -15 -9 -14 -4 4 25 -3 44 -16 44 -13 0
-21 32 -16 63 1 5 -3 6 -9 2 -6 -3 -8 -10 -6 -14 3 -4 -1 -8 -9 -8 -8 0 -12 4
-9 9 8 13 -6 49 -17 43 -5 -4 -9 1 -9 10 0 9 -9 19 -20 22 -11 3 -17 10 -14
15 3 5 -3 12 -14 15 -13 3 -18 11 -15 19 3 9 -2 14 -16 14 -12 0 -20 3 -20 8
4 21 -3 31 -16 26 -9 -4 -15 0 -15 10 0 9 -7 16 -15 16 -8 0 -15 6 -15 14 0 8
-5 18 -12 22 -7 5 -8 3 -3 -6 5 -9 4 -11 -3 -6 -7 4 -12 14 -12 21 0 9 -6 12
-15 8 -9 -3 -15 -2 -14 3 1 5 1 18 0 28 -1 20 -1 20 -17 0 -8 -10 -13 -14 -10
-7 4 6 2 14 -3 18 -6 3 -8 12 -4 21 3 8 2 14 -3 13 -24 -4 -36 2 -30 16 4 11
0 15 -12 13 -11 -2 -17 3 -16 15 1 11 -5 17 -18 17 -10 0 -16 5 -13 10 3 6 -1
10 -9 10 -9 0 -16 5 -16 10 0 6 -6 10 -13 10 -8 0 -19 12 -25 26 -7 14 -17 22
-22 19 -6 -3 -10 3 -10 14 0 14 -6 21 -20 21 -12 0 -20 7 -21 18 0 14 -2 14
-9 -3 -8 -19 -9 -18 -9 4 -1 21 -3 22 -18 10 -9 -8 -14 -9 -11 -4 8 14 -7 39
-24 41 -7 0 -20 2 -29 2 -11 2 -15 10 -13 28 2 22 0 23 -14 12 -12 -10 -14
-10 -8 0 6 11 -5 17 -26 13 -5 0 -8 4 -8 10 0 6 -6 9 -14 6 -8 -3 -20 1 -27 9
-7 9 -21 13 -31 11 -10 -3 -18 -1 -18 5 0 5 -6 6 -12 2 -9 -5 -9 -2 1 9 12 15
11 17 -8 17 -12 0 -21 6 -21 15 0 10 -10 15 -30 15 -20 0 -30 5 -30 15 0 8 -6
15 -14 15 -8 0 -16 6 -18 13 -7 16 1 37 13 37 6 0 7 -5 3 -12 -4 -7 -3 -8 4
-4 7 4 12 27 12 51 0 24 5 47 12 51 6 4 8 3 4 -4 -3 -6 -2 -14 4 -17 6 -4 10
-3 9 2 -4 23 2 43 11 38 6 -3 14 4 19 17 6 13 10 19 10 14 1 -12 51 42 51 55
0 5 7 9 15 9 9 0 15 9 15 21 0 15 5 19 15 15 8 -3 15 -1 15 3 0 5 -6 12 -12
14 -7 3 -3 6 10 6 24 1 30 16 10 24 -7 3 -3 6 10 6 14 1 22 7 23 19 0 14 2 14
9 -3 8 -19 9 -19 9 2 1 13 5 22 10 20 5 -1 24 11 42 28 19 16 37 29 42 27 4
-1 7 7 7 18 0 13 7 20 20 20 14 0 18 5 14 18 -5 16 -5 16 9 -1 13 -16 15 -15
20 13 5 24 12 30 31 30 14 0 28 4 31 10 3 6 -1 7 -9 4 -9 -3 -16 -2 -16 3 0 5
15 10 32 11 18 2 37 8 43 14 7 8 6 9 -2 4 -6 -3 -14 -2 -17 3 -4 5 8 11 26 13
20 2 32 8 31 16 -3 10 29 16 63 11 4 0 11 5 15 13 6 8 9 9 9 1 0 -6 8 -10 18
-8 9 2 26 4 37 5 l20 1 -20 9 c-19 8 -19 9 3 9 12 1 22 -3 22 -9 0 -5 5 -10
11 -10 5 0 7 5 4 10 -3 6 1 10 10 10 9 0 14 -4 11 -8 -3 -5 1 -9 9 -9 8 0 12
4 9 9 -8 13 71 9 85 -4 9 -9 12 -9 7 -1 -9 16 11 18 135 15 64 -2 109 -7 109
-13 0 -6 -5 -7 -12 -3 -6 4 -8 3 -4 -4 3 -6 18 -9 31 -6 23 4 30 -4 26 -29 -1
-5 3 -6 9 -2 6 3 8 10 5 15 -3 5 -1 11 4 14 4 3 8 -2 8 -12 0 -45 3 -54 18
-48 11 4 15 -1 15 -18 0 -20 4 -23 21 -19 15 4 27 0 35 -12 8 -10 17 -15 21
-11 4 3 13 -4 21 -16 7 -13 11 -15 8 -6 -3 12 -1 15 9 11 8 -3 12 -9 9 -14 -3
-5 2 -9 10 -9 15 0 18 -4 20 -32 1 -7 8 -18 16 -25 12 -9 15 -40 16 -155 2
-179 1 -171 19 -164 11 4 15 0 13 -12 -3 -15 7 -17 74 -18 68 -1 77 1 81 18 3
11 10 17 16 13 7 -3 11 2 11 14 0 13 5 19 14 15 8 -3 16 3 19 15 4 15 14 21
34 22 15 0 22 3 16 6 -7 2 -13 9 -13 14 0 4 7 6 15 3 8 -4 15 -1 15 5 0 6 7 8
15 4 10 -3 15 0 13 8 -2 11 17 14 90 16 74 1 92 -1 92 -13 0 -12 26 -19 53
-15 4 0 7 -3 7 -7 0 -5 11 -14 25 -20 14 -6 25 -8 25 -3 0 5 17 5 38 2 47 -9
72 -3 72 15 0 8 7 14 14 14 12 0 15 14 14 60 -1 47 -5 60 -15 56 -11 -5 -11
-1 -2 15 8 15 8 19 0 15 -7 -5 -11 2 -11 18 0 17 -4 24 -13 20 -14 -5 -17 7
-17 54 0 12 -5 22 -11 22 -5 0 -7 -4 -4 -10 3 -5 1 -10 -4 -10 -18 0 -17 137
0 155 7 7 8 3 3 -10 -4 -11 -3 -17 1 -12 7 6 10 18 14 62 1 6 6 3 11 -5 8 -13
11 -11 16 8 4 12 12 22 19 22 7 0 15 9 18 21 3 12 10 18 16 14 6 -3 11 1 11 9
0 8 8 19 17 25 13 7 17 23 17 75 -1 36 3 63 7 61 4 -3 2 6 -4 19 -13 28 -42
30 -72 7 -18 -14 -18 -14 -8 0 11 14 4 15 -57 15 -58 -1 -69 -4 -65 -16 4 -11
2 -11 -8 2 -9 11 -31 17 -67 19 -66 3 -82 8 -73 22 4 6 0 8 -10 4 -11 -4 -17
-1 -17 9 0 8 -7 17 -15 20 -8 4 -15 12 -15 20 0 8 -6 14 -14 14 -9 0 -16 12
-18 33 -2 19 -8 31 -15 30 -7 -2 -13 6 -13 18 0 15 -5 19 -15 15 -10 -4 -15 1
-15 14 0 14 -7 20 -21 20 -12 0 -17 4 -14 11 4 6 -2 13 -13 16 -11 3 -23 11
-26 19 -3 8 -11 14 -18 13 -10 0 -10 -2 0 -6z m486 -292 c-7 -8 -54 -9 -49 -1
2 3 15 6 29 6 14 0 23 -2 20 -5z m-1464 -241 c0 -5 -2 -10 -4 -10 -3 0 -8 5
-11 10 -3 6 -1 10 4 10 6 0 11 -4 11 -10z m1345 -468 c-3 -3 -11 0 -18 7 -9
10 -8 11 6 5 10 -3 15 -9 12 -12z m-4868 -968 c-3 -3 -12 -4 -19 -1 -8 3 -5 6
6 6 11 1 17 -2 13 -5z m4267 -1803 c3 -5 -2 -15 -12 -22 -15 -12 -16 -12 -5 2
7 9 10 19 6 22 -3 4 -4 7 0 7 3 0 8 -4 11 -9z m-4424 -47 c0 -8 -5 -12 -10 -9
-6 4 -8 11 -5 16 9 14 15 11 15 -7z m4427 -29 c0 -8 -4 -15 -9 -15 -10 0 -11
14 -1 23 9 10 10 9 10 -8z m-3837 -369 c0 -3 -4 -8 -10 -11 -5 -3 -10 -1 -10
4 0 6 5 11 10 11 6 0 10 -2 10 -4z m-200 -974 c0 -5 -7 -9 -15 -9 -8 0 -12 4
-9 9 3 4 9 8 15 8 5 0 9 -4 9 -8z m-360 -32 c0 -5 -2 -10 -4 -10 -3 0 -8 5
-11 10 -3 6 -1 10 4 10 6 0 11 -4 11 -10z m3640 -1149 c0 -4 -11 -7 -24 -7
-14 0 -23 3 -21 6 5 9 45 10 45 1z m-4293 -326 c0 -8 -4 -12 -9 -9 -5 3 -6 10
-3 15 9 13 12 11 12 -6z m33 -35 c0 -5 -5 -10 -11 -10 -5 0 -7 5 -4 10 3 6 8
10 11 10 2 0 4 -4 4 -10z m5198 -85 c-3 -3 -9 2 -12 12 -6 14 -5 15 5 6 7 -7
10 -15 7 -18z m332 -441 c0 -8 -19 -13 -24 -6 -3 5 1 9 9 9 8 0 15 -2 15 -3z
m-1665 -34 c-3 -5 -11 -10 -16 -10 -6 0 -7 5 -4 10 3 6 11 10 16 10 6 0 7 -4
4 -10z m-2250 -60 c3 -5 1 -10 -4 -10 -6 0 -11 5 -11 10 0 6 2 10 4 10 3 0 8
-4 11 -10z m50 -8 c-3 -3 -11 0 -18 7 -9 10 -8 11 6 5 10 -3 15 -9 12 -12z
m2042 2 c-3 -3 -12 -4 -19 -1 -8 3 -5 6 6 6 11 1 17 -2 13 -5z m-184 -58 c4
-10 1 -13 -8 -9 -8 3 -12 9 -9 14 7 12 11 11 17 -5z"/>
<path d="M6510 7639 c0 -5 5 -7 10 -4 6 3 10 8 10 11 0 2 -4 4 -10 4 -5 0 -10
-5 -10 -11z"/>
<path d="M6446 7553 c-6 -14 -5 -15 5 -6 7 7 10 15 7 18 -3 3 -9 -2 -12 -12z"/>
<path d="M3836 6658 c3 -5 10 -6 15 -3 13 9 11 12 -6 12 -8 0 -12 -4 -9 -9z"/>
<path d="M5150 6599 c0 -5 5 -7 10 -4 6 3 10 8 10 11 0 2 -4 4 -10 4 -5 0 -10
-5 -10 -11z"/>
<path d="M6610 4599 c0 -5 5 -7 10 -4 6 3 10 8 10 11 0 2 -4 4 -10 4 -5 0 -10
-5 -10 -11z"/>
<path d="M6490 4389 c0 -5 5 -7 10 -4 6 3 10 8 10 11 0 2 -4 4 -10 4 -5 0 -10
-5 -10 -11z"/>
<path d="M6405 3980 c-3 -5 -1 -10 4 -10 6 0 11 5 11 10 0 6 -2 10 -4 10 -3 0
-8 -4 -11 -10z"/>
<path d="M2915 3492 c-2 -3 -2 -8 1 -13 5 -9 34 -1 34 10 0 8 -27 10 -35 3z"/>
<path d="M5745 1510 c-3 -6 1 -7 9 -4 18 7 21 14 7 14 -6 0 -13 -4 -16 -10z"/>
<path d="M6305 1260 c4 -6 11 -8 16 -5 14 9 11 15 -7 15 -8 0 -12 -5 -9 -10z"/>
<path d="M1760 820 c0 -5 5 -10 10 -10 6 0 10 5 10 10 0 6 -4 10 -10 10 -5 0
-10 -4 -10 -10z"/>
<path d="M2075 690 c3 -5 8 -10 11 -10 2 0 4 5 4 10 0 6 -5 10 -11 10 -5 0 -7
-4 -4 -10z"/>
<path d="M6556 512 c-3 -4 4 -9 15 -9 23 -2 25 3 4 10 -8 4 -16 3 -19 -1z"/>
<path d="M4596 387 c3 -10 9 -15 12 -12 3 3 0 11 -7 18 -10 9 -11 8 -5 -6z"/>
<path d="M4390 379 c0 -5 5 -7 10 -4 6 3 10 8 10 11 0 2 -4 4 -10 4 -5 0 -10
-5 -10 -11z"/>
</g>
</svg>
